<svg width="193" height="36" viewBox="0 0 193 36" fill="none" xmlns="http://www.w3.org/2000/svg">
<path d="M4.968 12.8H0.24V9.224H13.968V12.8H9.216V26H4.968V12.8ZM24.2351 26.36C21.7071 26.36 19.8031 25.688 18.5231 24.344C17.2431 22.984 16.6031 21.192 16.6031 18.968V9.224H20.8511V19.016C20.8511 20.136 21.1471 20.984 21.7391 21.56C22.3471 22.136 23.1791 22.424 24.2351 22.424C25.2911 22.424 26.1151 22.136 26.7071 21.56C27.2991 20.984 27.5951 20.136 27.5951 19.016V9.224H31.8431V18.968C31.8431 21.208 31.2031 23 29.9231 24.344C28.6591 25.688 26.7631 26.36 24.2351 26.36ZM35.3194 9.224H42.8554C44.8234 9.224 46.3594 9.72 47.4634 10.712C48.5834 11.704 49.1434 13.128 49.1434 14.984C49.1434 16.232 48.8714 17.296 48.3274 18.176C47.7834 19.056 47.0154 19.712 46.0234 20.144L48.9994 26H44.6314L41.9674 20.744H39.5674V26H35.3194V9.224ZM42.1114 17.168C42.9594 17.168 43.6154 17.008 44.0794 16.688C44.5434 16.352 44.7754 15.784 44.7754 14.984C44.7754 14.152 44.5434 13.584 44.0794 13.28C43.6314 12.96 42.9754 12.8 42.1114 12.8H39.5674V17.168H42.1114ZM52.275 9.224H60.771C62.387 9.224 63.659 9.624 64.587 10.424C65.531 11.224 66.003 12.368 66.003 13.856C66.003 14.56 65.843 15.216 65.523 15.824C65.203 16.432 64.747 16.912 64.155 17.264C64.971 17.584 65.571 18.048 65.955 18.656C66.339 19.248 66.531 20.024 66.531 20.984C66.531 22.008 66.291 22.904 65.811 23.672C65.331 24.424 64.683 25 63.867 25.4C63.067 25.8 62.171 26 61.179 26H52.275V9.224ZM59.835 15.872C61.083 15.872 61.707 15.288 61.707 14.12C61.707 13.464 61.547 13.016 61.227 12.776C60.907 12.52 60.419 12.392 59.763 12.392H56.523V15.872H59.835ZM60.099 22.832C60.819 22.832 61.355 22.696 61.707 22.424C62.059 22.152 62.235 21.672 62.235 20.984C62.235 20.296 62.051 19.8 61.683 19.496C61.315 19.176 60.755 19.016 60.003 19.016H56.523V22.832H60.099ZM77.5871 26.36C75.8911 26.36 74.3551 25.992 72.9791 25.256C71.6191 24.52 70.5391 23.496 69.7391 22.184C68.9551 20.856 68.5631 19.336 68.5631 17.624C68.5631 15.912 68.9551 14.392 69.7391 13.064C70.5391 11.736 71.6191 10.704 72.9791 9.968C74.3551 9.232 75.8911 8.864 77.5871 8.864C79.2671 8.864 80.7871 9.232 82.1471 9.968C83.5231 10.704 84.6031 11.736 85.3871 13.064C86.1711 14.392 86.5631 15.912 86.5631 17.624C86.5631 19.336 86.1711 20.856 85.3871 22.184C84.6031 23.496 83.5231 24.52 82.1471 25.256C80.7871 25.992 79.2671 26.36 77.5871 26.36ZM77.5871 22.376C78.4351 22.376 79.2111 22.184 79.9151 21.8C80.6191 21.416 81.1791 20.864 81.5951 20.144C82.0111 19.424 82.2191 18.584 82.2191 17.624C82.2191 16.664 82.0111 15.832 81.5951 15.128C81.1951 14.408 80.6431 13.856 79.9391 13.472C79.2351 13.072 78.4511 12.872 77.5871 12.872C76.7071 12.872 75.9151 13.072 75.2111 13.472C74.5071 13.856 73.9471 14.408 73.5311 15.128C73.1311 15.832 72.9311 16.664 72.9311 17.624C72.9311 18.584 73.1311 19.424 73.5311 20.144C73.9471 20.864 74.5071 21.416 75.2111 21.8C75.9311 22.184 76.7231 22.376 77.5871 22.376ZM99.9947 9.224H101.339L108.083 23.984L114.803 9.224H116.147V26H114.899V11.816L108.419 26H107.723L101.243 11.816V26H99.9947V9.224ZM126.905 26.36C125.705 26.36 124.633 26.112 123.689 25.616C122.761 25.104 122.033 24.392 121.505 23.48C120.977 22.552 120.713 21.48 120.713 20.264C120.713 19.048 120.977 17.976 121.505 17.048C122.033 16.12 122.761 15.4 123.689 14.888C124.633 14.376 125.705 14.12 126.905 14.12C128.105 14.12 129.169 14.376 130.097 14.888C131.041 15.4 131.777 16.12 132.305 17.048C132.849 17.976 133.121 19.048 133.121 20.264C133.121 21.48 132.857 22.552 132.329 23.48C131.801 24.392 131.065 25.104 130.121 25.616C129.177 26.112 128.105 26.36 126.905 26.36ZM126.905 25.352C127.881 25.352 128.745 25.144 129.497 24.728C130.249 24.312 130.833 23.72 131.249 22.952C131.665 22.184 131.873 21.288 131.873 20.264C131.873 19.24 131.665 18.344 131.249 17.576C130.833 16.792 130.249 16.192 129.497 15.776C128.745 15.36 127.881 15.152 126.905 15.152C125.929 15.152 125.065 15.36 124.313 15.776C123.561 16.192 122.977 16.792 122.561 17.576C122.145 18.344 121.937 19.24 121.937 20.264C121.937 21.288 122.145 22.184 122.561 22.952C122.977 23.72 123.561 24.312 124.313 24.728C125.065 25.144 125.929 25.352 126.905 25.352ZM143.832 26.36C141.464 26.36 139.704 25.472 138.552 23.696V26H137.328V8.264H138.576V16.784C139.056 15.92 139.776 15.264 140.736 14.816C141.696 14.352 142.728 14.12 143.832 14.12C144.952 14.12 145.968 14.376 146.88 14.888C147.808 15.4 148.536 16.128 149.064 17.072C149.592 18 149.856 19.064 149.856 20.264C149.856 21.496 149.592 22.576 149.064 23.504C148.536 24.416 147.808 25.12 146.88 25.616C145.968 26.112 144.952 26.36 143.832 26.36ZM143.64 25.352C144.552 25.352 145.384 25.144 146.136 24.728C146.904 24.296 147.504 23.696 147.936 22.928C148.384 22.16 148.608 21.272 148.608 20.264C148.608 19.256 148.384 18.368 147.936 17.6C147.504 16.816 146.904 16.216 146.136 15.8C145.384 15.368 144.552 15.152 143.64 15.152C142.44 15.152 141.376 15.472 140.448 16.112C139.52 16.736 138.896 17.6 138.576 18.704V21.848C138.928 22.936 139.552 23.792 140.448 24.416C141.36 25.04 142.424 25.352 143.64 25.352ZM155.312 11.744C155.056 11.744 154.84 11.664 154.664 11.504C154.504 11.328 154.424 11.112 154.424 10.856C154.424 10.616 154.504 10.408 154.664 10.232C154.84 10.056 155.056 9.968 155.312 9.968C155.552 9.968 155.76 10.056 155.936 10.232C156.112 10.408 156.2 10.616 156.2 10.856C156.2 11.112 156.112 11.328 155.936 11.504C155.76 11.664 155.552 11.744 155.312 11.744ZM154.688 14.48H155.936V26H154.688V14.48ZM161.231 8.264H162.479V26H161.231V8.264ZM173.571 26.36C171.507 26.36 169.899 25.832 168.747 24.776C167.611 23.704 167.043 22.2 167.043 20.264C167.043 18.376 167.555 16.88 168.579 15.776C169.619 14.672 171.091 14.12 172.995 14.12C174.275 14.12 175.363 14.368 176.259 14.864C177.155 15.36 177.827 16.048 178.275 16.928C178.739 17.808 178.971 18.808 178.971 19.928V20.72H168.195C168.227 22.24 168.731 23.392 169.707 24.176C170.683 24.96 172.003 25.352 173.667 25.352C174.419 25.352 175.155 25.288 175.875 25.16C176.595 25.032 177.235 24.848 177.795 24.608V25.688C177.331 25.88 176.691 26.04 175.875 26.168C175.075 26.296 174.307 26.36 173.571 26.36ZM177.819 19.784C177.803 18.36 177.395 17.232 176.595 16.4C175.795 15.568 174.595 15.152 172.995 15.152C171.427 15.152 170.235 15.584 169.419 16.448C168.619 17.312 168.211 18.424 168.195 19.784H177.819ZM187.309 26.36C186.589 26.36 185.813 26.248 184.981 26.024C184.165 25.816 183.533 25.552 183.085 25.232V24.152C183.677 24.52 184.341 24.816 185.077 25.04C185.829 25.248 186.565 25.352 187.285 25.352C189.397 25.352 190.453 24.68 190.453 23.336C190.453 22.872 190.357 22.496 190.165 22.208C189.973 21.904 189.629 21.632 189.133 21.392C188.637 21.152 187.909 20.904 186.949 20.648C186.005 20.392 185.261 20.136 184.717 19.88C184.189 19.608 183.781 19.264 183.493 18.848C183.205 18.432 183.061 17.888 183.061 17.216C183.061 16.208 183.453 15.44 184.237 14.912C185.037 14.384 186.101 14.12 187.429 14.12C188.901 14.12 190.093 14.36 191.005 14.84V15.92C190.061 15.408 188.885 15.152 187.477 15.152C186.453 15.152 185.661 15.32 185.101 15.656C184.557 15.992 184.285 16.512 184.285 17.216C184.285 17.696 184.381 18.072 184.573 18.344C184.765 18.616 185.101 18.856 185.581 19.064C186.077 19.272 186.829 19.512 187.837 19.784C189.245 20.168 190.237 20.624 190.813 21.152C191.389 21.68 191.677 22.408 191.677 23.336C191.677 24.264 191.309 25 190.573 25.544C189.853 26.088 188.765 26.36 187.309 26.36Z" fill="white"/>
</svg>
